<svg xmlns:svg="http://www.w3.org/2000/svg" xmlns="http://www.w3.org/2000/svg" width="20" height="20" version="1.1" viewBox="0 0 20 20"><g transform="translate(-3200,-992.36218)"><g transform="matrix(1,0,0,-1,1,2004.7244)" opacity="0.5"/><g transform="translate(1,-2)"/><g transform="matrix(1,0,0,-1,1,2024.7244)" fill="#fff"/><path d="m3210 996.4c-0.6 0-1.2 0.3-1.5 0.8l-4.3 9.2c-0.5 0.8 0 2 1.1 2l4.7 0 4.7 0c1.1 0 1.6-1.2 1.1-2l-4.3-9.2c-0.3-0.5-0.9-0.8-1.5-0.8zm0 3 1 1 0 3-2 0 0-3zm-1 5 2 0 0 2-2 0z" fill="#000"/></g></svg>
