<svg xmlns:svg="http://www.w3.org/2000/svg" xmlns="http://www.w3.org/2000/svg" width="20" height="20" version="1.1" viewBox="0 0 20 20"><g transform="translate(-3200,-992.36218)"><path d="m3209 996.4c-1.7 0-3.1 0.6-3.9 1.6-0.8 1-1.1 2.2-1.1 3.4l0 6 2 0 0-6c0-0.8 0.2-1.6 0.7-2.1 0.4-0.5 1.1-0.9 2.3-0.9 1.3 0 1.9 0.4 2.3 0.9 0.4 0.5 0.7 1.3 0.7 2.1l0 2-4.5 0 5.5 5.5 5.5-5.5-4.5 0 0-2c0-1.2-0.3-2.4-1.1-3.4-0.8-1-2.2-1.6-3.9-1.6z" style="-inkscape-font-specification:Sans;baseline-shift:baseline;block-progression:tb;direction:ltr;fill:#FFF;font-family:Sans;font-size:medium;letter-spacing:normal;line-height:normal;text-align:start;text-anchor:start;text-decoration-line:none;text-decoration:none;text-indent:0;text-transform:none;word-spacing:normal;writing-mode:lr-tb"/><g transform="matrix(1,0,0,-1,1,2004.7244)" opacity="0.5"/><g transform="translate(1,-2)"/><g transform="matrix(1,0,0,-1,1,2024.7244)" fill="#fff"/></g></svg>
