<?xml version="1.0" encoding="UTF-8" standalone="no"?>
<!-- Created with Inkscape (http://www.inkscape.org/) -->

<svg
   xmlns:dc="http://purl.org/dc/elements/1.1/"
   xmlns:cc="http://creativecommons.org/ns#"
   xmlns:rdf="http://www.w3.org/1999/02/22-rdf-syntax-ns#"
   xmlns:svg="http://www.w3.org/2000/svg"
   xmlns="http://www.w3.org/2000/svg"
   xmlns:sodipodi="http://sodipodi.sourceforge.net/DTD/sodipodi-0.dtd"
   xmlns:inkscape="http://www.inkscape.org/namespaces/inkscape"
   width="20"
   height="20"
   id="svg5327"
   version="1.1"
   inkscape:version="0.91+devel+osxmenu r12911"
   sodipodi:docname="arrive.svg"
   inkscape:export-filename="/Users/saman/work_repos/mapbox-directions.js/dist/mapbox.directions.png"
   inkscape:export-xdpi="180"
   inkscape:export-ydpi="180"
   viewBox="0 0 20 20">
  <defs
     id="defs5329" />
  <sodipodi:namedview
     id="base"
     pagecolor="#ffffff"
     bordercolor="#666666"
     borderopacity="1.0"
     inkscape:pageopacity="0.0"
     inkscape:pageshadow="2"
     inkscape:zoom="4.0000001"
     inkscape:cx="-0.83850927"
     inkscape:cy="-16.195495"
     inkscape:document-units="px"
     inkscape:current-layer="layer1"
     showgrid="true"
     fit-margin-top="0"
     fit-margin-left="0"
     fit-margin-right="0"
     fit-margin-bottom="0"
     inkscape:window-width="1280"
     inkscape:window-height="751"
     inkscape:window-x="0"
     inkscape:window-y="23"
     inkscape:window-maximized="0"
     showguides="false"
     inkscape:snap-bbox="true"
     inkscape:snap-nodes="false"
     inkscape:guide-bbox="true">
    <inkscape:grid
       type="xygrid"
       id="grid5368"
       empspacing="5"
       visible="true"
       enabled="true"
       snapvisiblegridlinesonly="true" />
    <sodipodi:guide
       orientation="0,1"
       position="206,16"
       id="guide7926" />
    <sodipodi:guide
       orientation="0,1"
       position="202,4"
       id="guide7928" />
  </sodipodi:namedview>
  <metadata
     id="metadata5332">
    <rdf:RDF>
      <cc:Work
         rdf:about="">
        <dc:format>image/svg+xml</dc:format>
        <dc:type
           rdf:resource="http://purl.org/dc/dcmitype/StillImage" />
        <dc:title />
      </cc:Work>
    </rdf:RDF>
  </metadata>
  <g
     inkscape:label="Layer 1"
     inkscape:groupmode="layer"
     id="layer1"
     transform="translate(-3200,-992.36218)">
    <g
       id="g5936"
       transform="matrix(1,0,0,-1,1,2004.7244)"
       style="opacity:0.5" />
    <g
       id="g5932"
       transform="translate(1,-2)" />
    <g
       transform="matrix(1,0,0,-1,1,2024.7244)"
       id="g6038"
       style="fill:#ffffff" />
    <g
       style="color:#000000;font-style:normal;font-variant:normal;font-weight:bold;font-stretch:normal;font-size:16.80980301px;line-height:125%;font-family:'Open Sans';-inkscape-font-specification:'Open Sans Bold';text-indent:0;text-align:center;text-decoration:none;text-decoration-line:none;letter-spacing:normal;word-spacing:normal;text-transform:none;direction:ltr;block-progression:tb;writing-mode:lr-tb;text-anchor:middle;display:inline;overflow:visible;visibility:visible;fill:#000000;fill-opacity:1;fill-rule:nonzero;stroke:none;stroke-width:2;marker:none;enable-background:accumulate"
       id="text6606">
      <path
         d="m 3205.9999,996.36222 3.7346,0 q 2.5527,0 3.7018,0.7305 1.1573,0.7223 1.1573,2.30642 0,1.07526 -0.5089,1.76466 -0.5007,0.6895 -1.3379,0.829 l 0,0.082 q 1.1409,0.2545 1.6416,0.9521 0.5089,0.6977 0.5089,1.855 0,1.6416 -1.1901,2.5609 -1.182,0.9193 -3.2175,0.9193 l -4.4898,0 0,-11.99998 z m 2.5445,4.75238 1.4774,0 q 1.0342,0 1.4938,-0.3201 0.4679,-0.3201 0.4679,-1.05883 0,-0.68947 -0.5089,-0.98495 -0.5007,-0.30369 -1.5923,-0.30369 l -1.3379,0 0,2.66757 z m 0,2.0191 0,3.1273 1.658,0 q 1.0506,0 1.5513,-0.4022 0.5007,-0.4022 0.5007,-1.2312 0,-1.4939 -2.1341,-1.4939 l -1.5759,0 z"
         style=""
         id="path27212" />
    </g>
  </g>
</svg>
