<svg xmlns:svg="http://www.w3.org/2000/svg" xmlns="http://www.w3.org/2000/svg" width="20" height="20" id="svg5327" version="1.1" viewBox="0 0 20 20"><defs id="defs5329"/><metadata id="metadata5332"/><g id="layer1" transform="translate(-3200,-992.36218)"><g id="g5936" transform="matrix(1,0,0,-1,1,2004.7244)" opacity="0.5"/><g id="g5932" transform="translate(1,-2)"/><g transform="matrix(1,0,0,-1,1,2024.7244)" id="g6038" fill="#fff"/><g id="text6606" style="-inkscape-font-specification:'Open Sans Bold';block-progression:tb;color:#FFF;direction:ltr;display:inline;enable-background:accumulate;fill-rule:nonzero;fill:#FFF;font-family:'Open Sans';font-size:16.81;font-weight:bold;letter-spacing:normal;line-height:125;overflow:visible;text-align:center;text-anchor:middle;text-decoration-line:none;text-decoration:none;text-indent:0;text-transform:none;word-spacing:normal;writing-mode:lr-tb"><path d="m3206 996.36 3.73 0q2.55 0 3.7 0.73 1.16 0.72 1.16 2.31 0 1.08-0.51 1.76-0.5 0.69-1.34 0.83l0 0.08q1.14 0.25 1.64 0.95 0.51 0.7 0.51 1.86 0 1.64-1.19 2.56-1.18 0.92-3.22 0.92l-4.49 0 0-12zm2.54 4.75 1.48 0q1.03 0 1.49-0.32 0.47-0.32 0.47-1.06 0-0.69-0.51-0.98-0.5-0.3-1.59-0.3l-1.34 0 0 2.67zm0 2.02 0 3.13 1.66 0q1.05 0 1.55-0.4 0.5-0.4 0.5-1.23 0-1.49-2.13-1.49l-1.58 0z" id="path27212"/></g></g></svg>
