<svg xmlns:svg="http://www.w3.org/2000/svg" xmlns="http://www.w3.org/2000/svg" width="20" height="20" version="1.1" viewBox="0 0 20 20"><g transform="translate(-3200,-992.36218)"><path d="m3210 995.4c-1.5 0-3.1 0.6-4.2 1.7-2.3 2.3-2.3 6.2 0 8.5l1.4-1.4c-1.6-1.6-1.6-4.1 0-5.6 1.6-1.6 4.1-1.6 5.6 0 1.6 1.6 1.6 4.1 0 5.6-0.8 0.8-1.8 1.2-2.8 1.2l-1 0 0 4 2 0 0-2.1c1.2-0.2 2.4-0.8 3.3-1.7 2.3-2.3 2.3-6.2 0-8.5-1.2-1.2-2.7-1.7-4.2-1.7z" style="-inkscape-font-specification:Sans;baseline-shift:baseline;block-progression:tb;direction:ltr;fill:#FFF;font-family:Sans;font-size:medium;letter-spacing:normal;line-height:normal;text-align:start;text-anchor:start;text-decoration-line:none;text-decoration:none;text-indent:0;text-transform:none;word-spacing:normal;writing-mode:lr-tb"/><g transform="matrix(1,0,0,-1,1,2004.7244)" opacity="0.5"/><g transform="translate(1,-2)"/><g transform="matrix(1,0,0,-1,1,2024.7244)" fill="#fff"/></g></svg>
